<svg width="74" height="72" viewBox="0 0 74 72" fill="none" xmlns="http://www.w3.org/2000/svg" xmlns:xlink="http://www.w3.org/1999/xlink">
<path d="M74,36.09C74,16.168 57.424,0 37,0C16.576,0 0,16.168 0,36.09C0,53.558 12.728,68.102 29.6,71.459L29.6,46.917L22.2,46.917L22.2,36.09L29.6,36.09L29.6,27.068C29.6,20.102 35.409,14.436 42.55,14.436L51.8,14.436L51.8,25.263L44.4,25.263C42.365,25.263 40.7,26.887 40.7,28.872L40.7,36.09L51.8,36.09L51.8,46.917L40.7,46.917L40.7,72C59.385,70.195 74,54.821 74,36.09Z" fill="#D0AAFE"/>
</svg>
