<svg width="76" height="76" viewBox="0 0 76 76" fill="none" xmlns="http://www.w3.org/2000/svg" xmlns:xlink="http://www.w3.org/1999/xlink">
<path d="M22.04,0L53.96,0C66.12,0 76,9.88 76,22.04L76,53.96C76,59.805 73.678,65.411 69.545,69.545C65.411,73.678 59.805,76 53.96,76L22.04,76C9.88,76 0,66.12 0,53.96L0,22.04C0,16.195 2.322,10.589 6.455,6.455C10.589,2.322 16.195,0 22.04,0ZM21.28,7.6C17.652,7.6 14.172,9.041 11.607,11.607C9.041,14.172 7.6,17.652 7.6,21.28L7.6,54.72C7.6,62.282 13.718,68.4 21.28,68.4L54.72,68.4C58.348,68.4 61.828,66.959 64.393,64.393C66.959,61.828 68.4,58.348 68.4,54.72L68.4,21.28C68.4,13.718 62.282,7.6 54.72,7.6L21.28,7.6ZM57.95,13.3C59.21,13.3 60.418,13.8 61.309,14.691C62.2,15.582 62.7,16.79 62.7,18.05C62.7,19.31 62.2,20.518 61.309,21.409C60.418,22.3 59.21,22.8 57.95,22.8C56.69,22.8 55.482,22.3 54.591,21.409C53.7,20.518 53.2,19.31 53.2,18.05C53.2,16.79 53.7,15.582 54.591,14.691C55.482,13.8 56.69,13.3 57.95,13.3ZM38,19C43.039,19 47.872,21.002 51.435,24.565C54.998,28.128 57,32.961 57,38C57,43.039 54.998,47.872 51.435,51.435C47.872,54.998 43.039,57 38,57C32.961,57 28.128,54.998 24.565,51.435C21.002,47.872 19,43.039 19,38C19,32.961 21.002,28.128 24.565,24.565C28.128,21.002 32.961,19 38,19ZM38,26.6C34.977,26.6 32.077,27.801 29.939,29.939C27.801,32.077 26.6,34.977 26.6,38C26.6,41.023 27.801,43.923 29.939,46.061C32.077,48.199 34.977,49.4 38,49.4C41.023,49.4 43.923,48.199 46.061,46.061C48.199,43.923 49.4,41.023 49.4,38C49.4,34.977 48.199,32.077 46.061,29.939C43.923,27.801 41.023,26.6 38,26.6Z" fill="#D0AAFE"/>
</svg>
