<svg width="94" height="94" viewBox="0 0 94 94" fill="none" xmlns="http://www.w3.org/2000/svg" xmlns:xlink="http://www.w3.org/1999/xlink">
<path d="M86,6L93,6L93,-1L86,-1L86,6ZM64.455,49.636L64.455,84L78.455,84L78.455,49.636L64.455,49.636ZM69.455,79L8,79L8,93L69.455,93L69.455,79ZM13,84L13,22.545L-1,22.545L-1,84L13,84ZM8,27.545L42.364,27.545L42.364,13.545L8,13.545L8,27.545ZM53.273,13L86,13L86,-1L53.273,-1L53.273,13ZM79,6L79,38.727L93,38.727L93,6L79,6ZM43.677,58.222L90.95,10.95L81.05,1.05L33.778,48.323L43.677,58.222ZM13,22.545C13,25.307 10.761,27.545 8,27.545L8,13.545C3.029,13.545 -1,17.575 -1,22.545L13,22.545ZM8,79C10.761,79 13,81.239 13,84L-1,84C-1,88.971 3.029,93 8,93L8,79ZM64.455,84C64.455,81.239 66.693,79 69.455,79L69.455,93C74.425,93 78.455,88.971 78.455,84L64.455,84Z" fill="#FFFFFF"/>
</svg>
