<svg width="74" height="74" viewBox="0 0 74 74" fill="none" xmlns="http://www.w3.org/2000/svg" xmlns:xlink="http://www.w3.org/1999/xlink">
<path d="M37,0C16.576,0 0,16.576 0,37C0,57.424 16.576,74 37,74C57.424,74 74,57.424 74,37C74,16.576 57.424,0 37,0ZM54.168,25.16C53.613,31.006 51.208,45.214 49.987,51.763C49.469,54.538 48.433,55.463 47.471,55.574C45.325,55.759 43.697,54.168 41.625,52.799C38.369,50.653 36.519,49.321 33.374,47.249C29.711,44.844 32.079,43.512 34.188,41.366C34.743,40.811 44.215,32.19 44.4,31.413C44.426,31.295 44.422,31.173 44.39,31.057C44.358,30.941 44.298,30.835 44.215,30.747C43.993,30.562 43.697,30.636 43.438,30.673C43.105,30.747 37.925,34.188 27.824,40.996C26.344,41.995 25.012,42.513 23.828,42.476C22.496,42.439 19.98,41.736 18.093,41.107C15.762,40.367 13.949,39.96 14.097,38.665C14.171,37.999 15.096,37.333 16.835,36.63C27.639,31.931 34.817,28.823 38.406,27.343C48.692,23.051 50.801,22.311 52.207,22.311C52.503,22.311 53.206,22.385 53.65,22.755C54.02,23.051 54.131,23.458 54.168,23.754C54.131,23.976 54.205,24.642 54.168,25.16Z" fill="#D0AAFE"/>
</svg>
