<svg width="80" height="80" viewBox="0 0 80 80" fill="none" xmlns="http://www.w3.org/2000/svg" xmlns:xlink="http://www.w3.org/1999/xlink">
<path d="M40,0C62.092,0 80,17.908 80,40C80,62.092 62.092,80 40,80C17.908,80 0,62.092 0,40C0,17.908 17.908,0 40,0ZM40,16C38.939,16 37.922,16.421 37.172,17.172C36.421,17.922 36,18.939 36,20L36,40C36,41.061 36.422,42.078 37.172,42.828L49.172,54.828C49.926,55.557 50.937,55.96 51.986,55.951C53.034,55.942 54.038,55.521 54.779,54.779C55.521,54.038 55.942,53.034 55.951,51.986C55.96,50.937 55.557,49.926 54.828,49.172L44,38.344L44,20C44,18.939 43.579,17.922 42.828,17.172C42.078,16.421 41.061,16 40,16Z" fill="#FFFFFF"/>
</svg>
